<svg width="46" height="46" viewBox="0 0 46 46" fill="none" xmlns="http://www.w3.org/2000/svg">
<path d="M11 39.261V16.3044V2.91305C11 1.86087 11.9 1 13 1H43.0003C44.1003 1 45.0004 1.86087 45.0004 2.91305V39.261C45.0004 42.4367 42.3203 45.0002 39.0003 45.0002H15H11" stroke="#FFC28F" stroke-width="2" stroke-miterlimit="10" stroke-linecap="round" stroke-linejoin="round"/>
<path d="M6.00005 45.0005C3.24002 45.0005 1 42.8579 1 40.2179V22.0439C1 20.9917 1.90001 20.1309 3.00002 20.1309H11.0001V40.2179C11.0001 42.8579 8.76008 45.0005 6.00005 45.0005Z" stroke="#FFC28F" stroke-width="2" stroke-miterlimit="10" stroke-linecap="round" stroke-linejoin="round"/>
<path d="M17.0001 45H7" stroke="#FFC28F" stroke-width="2" stroke-miterlimit="10" stroke-linecap="round" stroke-linejoin="round"/>
<path d="M19 8.65234H37.0002" stroke="#FFC28F" stroke-width="2" stroke-miterlimit="10" stroke-linecap="round" stroke-linejoin="round"/>
<path d="M19 16.3047H37.0002" stroke="#FFC28F" stroke-width="2" stroke-miterlimit="10" stroke-linecap="round" stroke-linejoin="round"/>
<path d="M19 23.957H37.0002" stroke="#FFC28F" stroke-width="2" stroke-miterlimit="10" stroke-linecap="round" stroke-linejoin="round"/>
</svg>
