<svg width="52" height="34" viewBox="0 0 52 34" fill="none" xmlns="http://www.w3.org/2000/svg">
<path d="M18.5332 15.9326C20.8896 15.9326 22.7998 14.0224 22.7998 11.666C22.7998 9.30963 20.8896 7.39941 18.5332 7.39941C16.1768 7.39941 14.2666 9.30963 14.2666 11.666C14.2666 14.0224 16.1768 15.9326 18.5332 15.9326Z" stroke="#FFC28F" stroke-width="2" stroke-miterlimit="10" stroke-linecap="round" stroke-linejoin="round"/>
<path d="M35.5996 24.4658C37.956 24.4658 39.8662 22.5556 39.8662 20.1992C39.8662 17.8428 37.956 15.9326 35.5996 15.9326C33.2432 15.9326 31.333 17.8428 31.333 20.1992C31.333 22.5556 33.2432 24.4658 35.5996 24.4658Z" stroke="#FFC28F" stroke-width="2" stroke-miterlimit="10" stroke-linecap="round" stroke-linejoin="round"/>
<path d="M48.3992 1L37.6475 16.445" stroke="#FFC28F" stroke-width="2" stroke-miterlimit="10" stroke-linecap="round" stroke-linejoin="round"/>
<path d="M31.7808 18.3003L22.3516 13.5645" stroke="#FFC28F" stroke-width="2" stroke-miterlimit="10" stroke-linecap="round" stroke-linejoin="round"/>
<path d="M15.8665 14.9951L1.4668 33.0001" stroke="#FFC28F" stroke-width="2" stroke-miterlimit="10" stroke-linecap="round" stroke-linejoin="round"/>
<path d="M39.8662 3.13329L48.3994 1L50.5327 9.53317" stroke="#FFC28F" stroke-width="2" stroke-miterlimit="10" stroke-linecap="round" stroke-linejoin="round"/>
</svg>
