<svg width="52" height="52" viewBox="0 0 52 52" fill="none" xmlns="http://www.w3.org/2000/svg">
<path d="M26 51C39.8071 51 51 39.8071 51 26C51 12.1929 39.8071 1 26 1C12.1929 1 1 12.1929 1 26C1 39.8071 12.1929 51 26 51Z" stroke="#FFC28F" stroke-width="2" stroke-miterlimit="10" stroke-linecap="round" stroke-linejoin="round"/>
<path d="M5.28223 39.956C9.76049 37.2386 42.2389 37.2386 46.7171 39.956" stroke="#FFC28F" stroke-width="2" stroke-miterlimit="10" stroke-linecap="round" stroke-linejoin="round"/>
<path d="M4.30371 13.6084C8.60806 16.5214 43.3906 16.5214 47.6949 13.6084" stroke="#FFC28F" stroke-width="2" stroke-miterlimit="10" stroke-linecap="round" stroke-linejoin="round"/>
<path d="M26.0005 51C32.6039 51 37.957 39.8071 37.957 26C37.957 12.1929 32.6039 1 26.0005 1C19.3971 1 14.0439 12.1929 14.0439 26C14.0439 39.8071 19.3971 51 26.0005 51Z" stroke="#FFC28F" stroke-width="2" stroke-miterlimit="10" stroke-linecap="round" stroke-linejoin="round"/>
<path d="M1 27.0869H51" stroke="#FFC28F" stroke-width="2" stroke-miterlimit="10" stroke-linecap="round" stroke-linejoin="round"/>
</svg>
