<svg width="799" height="538" viewBox="0 0 799 538" fill="none" xmlns="http://www.w3.org/2000/svg">
<path fill-rule="evenodd" clip-rule="evenodd" d="M577.581 605.707C566.197 605.284 572.637 581.957 561.347 580.629C566.412 572.585 547.634 547.626 544.401 538.822L531.226 508.373C497.792 514.943 464.201 522.138 431.297 526.584C403.843 535.054 389.99 548.697 383.781 563.557C378.051 572.117 374.986 593.731 361.251 592.9C351.903 592.337 352.922 578.32 343.93 579.381C332.598 580.718 323.325 580.507 311.838 578.893C305.319 577.978 298.637 573.337 292.251 573.337C285.179 573.337 278.135 574.017 271.106 574.684C262.476 575.5 255.189 579.376 246.244 578.883C241.326 578.611 239.501 573.14 234.475 572.516C229.67 571.915 225.972 575.158 223.959 579.221C221.758 583.656 221.054 589.034 221.885 593.905C222.42 597.058 226.84 600.188 224.437 603.421C222.166 606.486 220.364 609.634 218.027 612.825C216.779 614.571 215.207 615.946 213.316 616.955C208.811 619.207 211.106 620.92 212.035 625.861C213.499 633.689 210.552 637.316 209.158 644.449C207.868 651.051 213.409 656.791 212.781 663.356C211.528 662.23 204.799 662.056 205.92 664.679C205.681 664.13 212.711 668.086 212.696 668.067C216.46 672.084 217.868 676.242 219.149 681.497C221.673 691.802 221.871 703.29 225.109 713.314C226.437 717.429 229.74 720.507 231.307 724.52C233.189 729.358 231.41 734.604 231.307 739.555C231.115 749.348 242.959 757.588 239.754 767.537C244.076 767.87 246.99 765.444 251.364 767.189C256.019 769.048 259.219 770.582 264.348 769.564C274.93 767.467 279.637 760.071 290.669 765.857C290.101 762.853 293.302 759.803 294.381 764.172C296.207 762.164 297.267 759.831 298.741 757.598C301.068 754.064 304.846 754.144 307.962 751.788C314.907 746.542 315.695 741.253 325.258 739.057C334.179 737.006 343.635 736.617 352.734 737.452C358.093 737.94 367.079 731.793 372.448 730.272C380.458 728.006 384.424 721.075 391.472 717.171C393.635 715.974 396.685 713.267 399.027 712.567C401.613 712.652 404.076 713.267 406.422 714.402C409.069 714.529 411.66 714.21 414.184 713.45C431.209 710.709 435.038 693.093 450.341 685.58C457.45 682.089 463.729 681.207 471.326 679.878C480.688 678.245 488.45 671.967 497.661 669.771C504.067 668.241 510.557 667.035 516.77 664.792C522.978 662.548 525.184 657.603 530.43 654.923C534.785 652.699 544.179 652.975 545.517 647.063C547.07 640.211 542.312 633.98 544.799 626.992C549.811 612.872 567.051 613.431 577.572 605.707" fill="#D9B99E"/>
<path d="M577.581 605.707C566.197 605.284 572.637 581.957 561.347 580.629C566.412 572.585 547.634 547.626 544.401 538.822L531.226 508.373C497.792 514.943 464.201 522.138 431.297 526.584C403.843 535.054 389.99 548.697 383.781 563.557C378.051 572.117 374.986 593.731 361.251 592.9C351.903 592.337 352.922 578.32 343.93 579.381C332.598 580.718 323.325 580.507 311.838 578.893C305.319 577.978 298.637 573.337 292.251 573.337C285.179 573.337 278.135 574.017 271.106 574.684C262.476 575.5 255.189 579.376 246.244 578.883C241.326 578.611 239.501 573.14 234.475 572.516C229.67 571.915 225.972 575.158 223.959 579.221C221.758 583.656 221.054 589.034 221.885 593.905C222.42 597.058 226.84 600.188 224.437 603.421C222.166 606.486 220.364 609.634 218.027 612.825C216.779 614.571 215.207 615.946 213.316 616.955C208.811 619.207 211.106 620.92 212.035 625.861C213.499 633.689 210.552 637.316 209.158 644.449C207.868 651.051 213.409 656.791 212.781 663.356C211.528 662.23 204.799 662.056 205.92 664.679C205.681 664.13 212.711 668.086 212.696 668.067C216.46 672.084 217.868 676.242 219.149 681.497C221.673 691.802 221.871 703.29 225.109 713.314C226.437 717.429 229.74 720.507 231.307 724.52C233.189 729.358 231.41 734.604 231.307 739.555C231.115 749.348 242.959 757.588 239.754 767.537C244.076 767.87 246.99 765.444 251.364 767.189C256.019 769.048 259.219 770.582 264.348 769.564C274.93 767.467 279.637 760.071 290.669 765.857C290.101 762.853 293.302 759.803 294.381 764.172C296.207 762.164 297.267 759.831 298.741 757.598C301.068 754.064 304.846 754.144 307.962 751.788C314.907 746.542 315.695 741.253 325.258 739.057C334.179 737.006 343.635 736.617 352.734 737.452C358.093 737.94 367.079 731.793 372.448 730.272C380.458 728.006 384.424 721.075 391.472 717.171C393.635 715.974 396.685 713.267 399.027 712.567C401.613 712.652 404.076 713.267 406.422 714.402C409.069 714.529 411.66 714.21 414.184 713.45C431.209 710.709 435.038 693.093 450.341 685.58C457.45 682.089 463.729 681.207 471.326 679.878C480.688 678.245 488.45 671.967 497.661 669.771C504.067 668.241 510.557 667.035 516.77 664.792C522.978 662.548 525.184 657.603 530.43 654.923C534.785 652.699 544.179 652.975 545.517 647.063C547.07 640.211 542.312 633.98 544.799 626.992C549.811 612.872 567.051 613.431 577.572 605.707" stroke="#E4E7EC" stroke-width="2.5"/>
<path fill-rule="evenodd" clip-rule="evenodd" d="M762.053 464.296C765.202 461.503 766.291 457.777 767.802 454.019C768.66 452.888 769.665 451.926 770.833 451.118C772.114 449.612 768.843 444.915 768.482 443.343C766.741 450.673 759.083 456.121 762.053 464.296Z" fill="#D9B99E" stroke="#E4E7EC" stroke-width="2.5"/>
<path fill-rule="evenodd" clip-rule="evenodd" d="M652.579 224.741C653.55 222.024 654.784 219.439 656.281 216.975C659.472 220.541 662.541 215.689 661.026 212.578C663.766 214.061 669.271 223.385 662.387 221.7C666.812 224.774 663.579 243.61 658.694 242.742C652.058 241.569 661.045 225.173 652.579 224.741Z" fill="#D9B99E" stroke="#E4E7EC" stroke-width="2.5"/>
<path fill-rule="evenodd" clip-rule="evenodd" d="M530.927 507.703C580.33 496.347 611.255 484.448 633.63 472.297C642.78 454.844 632.936 482.332 637.314 462.895C640.889 447.019 643.364 431.173 646.966 416.044C649.459 405.577 655.3 392.417 649.247 382.449C644.887 375.279 636.047 369.151 633.297 361.229C629.839 351.272 648.642 317.001 639.392 311.577C643.545 306.631 651.697 310.91 655.301 306.175C659.256 300.981 652.893 302.712 651.593 300.094C648.139 293.12 645.38 277.809 650.031 270.737C652.199 267.433 656.615 272.511 655.93 275.124C653.776 283.275 662.007 274.439 663.311 273.2C667.337 269.362 667.3 270.009 669.806 275.424C673.973 284.425 679.426 292.933 686.066 300.31C696.563 311.971 711.251 316.161 726.202 319.165C733.198 320.568 739.144 323.322 746.267 324.12C755.793 325.19 761.002 336.79 766.455 343.266C770.857 348.489 773.846 354.796 778.234 359.793C782.8 364.997 785.211 365.214 791.241 367.621C805.38 373.271 789.388 393.337 786.572 401.628C781.251 417.292 764.47 425.467 759.923 442.248C758.848 446.208 757.389 457.663 751.11 455.777C746.141 454.289 747.107 444.81 740.753 448.756C733.175 453.346 733.588 469.84 731.636 476.621C729.078 485.486 731.969 492.356 734.311 500.943C736.221 507.964 737.422 513.271 728.895 513.529C715.193 513.937 700.12 517.977 696.746 532.75C695.423 538.555 694.367 544.937 690.72 549.84C686.183 555.946 677.14 555.612 669.965 556.152C661.274 556.8 657.792 558.212 652.691 565.059C647.75 571.685 650.96 572.947 650.547 580.516C650.219 586.537 644.066 590.906 639.219 593.266C636.882 594.397 634.531 595.918 632.143 594.036C628.018 590.784 624.615 591.671 619.496 591.671C604.672 591.671 591.699 606.054 576.753 605.632C567.072 605.355 571.42 581.657 561.026 580.521C565.432 575.922 554.677 559.751 552.49 555.702C544.841 541.567 535.789 522.833 530.777 507.553" fill="#D9B99E"/>
<path d="M530.927 507.703C580.33 496.347 611.255 484.448 633.63 472.297C642.78 454.844 632.936 482.332 637.314 462.895C640.889 447.019 643.364 431.173 646.966 416.044C649.459 405.577 655.3 392.417 649.247 382.449C644.887 375.279 636.047 369.151 633.297 361.229C629.839 351.272 648.642 317.001 639.392 311.577C643.545 306.631 651.697 310.91 655.301 306.175C659.256 300.981 652.893 302.712 651.593 300.094C648.139 293.12 645.38 277.809 650.031 270.737C652.199 267.433 656.615 272.511 655.93 275.124C653.776 283.275 662.006 274.439 663.311 273.2C667.337 269.362 667.3 270.009 669.806 275.424C673.973 284.425 679.426 292.933 686.066 300.31C696.563 311.971 711.251 316.161 726.202 319.165C733.198 320.568 739.144 323.322 746.267 324.12C755.793 325.19 761.002 336.79 766.455 343.266C770.857 348.489 773.846 354.796 778.234 359.793C782.8 364.998 785.211 365.214 791.241 367.621C805.38 373.271 789.388 393.337 786.572 401.628C781.251 417.292 764.47 425.467 759.923 442.248C758.848 446.208 757.389 457.663 751.11 455.777C746.141 454.289 747.107 444.81 740.753 448.756C733.175 453.346 733.588 469.84 731.636 476.621C729.078 485.486 731.969 492.356 734.311 500.943C736.221 507.963 737.422 513.271 728.895 513.529C715.193 513.937 700.12 517.977 696.746 532.75C695.423 538.555 694.367 544.937 690.72 549.84C686.183 555.946 677.14 555.612 669.965 556.152C661.274 556.8 657.792 558.212 652.691 565.059C647.75 571.685 650.96 572.947 650.547 580.516C650.219 586.537 644.066 590.906 639.219 593.266C636.882 594.397 634.531 595.918 632.143 594.036C628.018 590.784 624.615 591.671 619.496 591.671C604.672 591.671 591.699 606.054 576.753 605.632C567.072 605.355 571.42 581.657 561.026 580.521C565.432 575.922 554.677 559.751 552.49 555.702C544.841 541.567 535.789 522.833 530.777 507.554" stroke="#E4E7EC" stroke-width="2.5"/>
<path fill-rule="evenodd" clip-rule="evenodd" d="M211.336 617.112C211.792 612.853 209.188 602.759 205.348 600.32C203.393 599.077 193.922 579.216 194.467 588.799C193.589 571.636 181.669 567.222 172.185 555.604C168.594 551.204 163.527 544.853 161.844 539.473C159.668 532.531 155.744 530.551 152.182 524.908C150.095 521.597 151.871 518.707 149.465 515.306C147.749 512.891 144.882 505.203 143.749 502.102C142.687 499.199 142.044 496.131 140.681 493.34C139.426 490.775 136.808 490.413 135.548 488.157C134.345 485.99 135.501 483.035 133.861 481.135C132.173 479.217 129.419 478.949 127.591 477.251C122.999 472.988 117.683 468.677 113.627 463.925C108.706 458.156 102.939 460.571 97.3884 456.491C88.1811 449.708 82.0573 437.114 76.2716 427.47C72.9017 421.855 73.8697 418.642 73.5877 412.718C73.2775 406.301 68.6246 400.991 68.1452 394.504C67.5154 385.991 71.0451 377.524 69.3484 369.043C68.5729 365.178 66.4578 361.909 64.3804 358.649C63.29 356.932 56.677 348.419 64.1406 354.24C62.5003 349.962 58.7731 349.915 57.8049 345.229C56.9353 341.04 54.8771 336.457 53.2368 332.503C48.6966 321.551 39.8369 314.088 31.5319 306.207C25.4736 300.466 19.4719 299.561 12.0835 297.544C8.9345 296.686 7.43044 290.705 6.50454 288.153C4.52113 282.684 0.685944 278.931 -2.74977 274.372C9.14128 270.047 -7.42191 250.567 -11.3041 245.853C-13.922 242.687 -21.2681 236.918 -20.9532 232.738C-20.4033 225.538 -29.6953 221.378 -32.8208 214.9C-42.2961 195.246 -57.2516 178.918 -67.7514 159.635C-70.9521 153.762 -74.5242 144.705 -81.579 142.72C-84.7844 141.82 -97.3898 139.728 -97.6389 145.633C-101.855 141.787 -95.0395 131.678 -93.8551 127.64C-91.3735 119.173 -93.3569 110.366 -91.9704 101.818C-90.214 90.9895 -91.9046 97.7295 -90.3794 91.2763C-82.2813 93.6806 -60.0009 99.65 -51.9216 97.892C-35.871 94.3995 -36.125 71.1084 -21.0427 68.735C-15.3885 67.8438 -1.50939 69.2701 -2.11523 61.6615C-3.4975 44.3089 4.06655 49.5184 14.5913 45.9758C0.855026 32.8444 -12.2127 19.1491 -24.7783 4.91386C-0.373398 -0.174448 15.8261 -5.66215 44.5935 -21C56.7793 -18.6677 78.5139 -17.3418 91.8737 -11.1693C136.765 9.57132 173.74 41.2807 212.708 70.8739C220.961 77.1453 228.994 83.3695 236.697 90.2789C245.472 98.145 251.571 97.7524 263.134 98.8688C276.463 100.154 290.508 102.034 303.842 103.263C308.734 103.718 311.15 101.227 316.461 102.371C323.638 103.915 331.083 104.787 338.392 105.448C346.137 106.143 346.748 115.13 349.22 120.82C352.882 129.272 365.22 123.934 372.223 124.549C379.465 125.187 380.41 129.103 382.779 135.018C385.34 141.421 398.077 149.578 396.098 156.759C395.445 155.629 394.646 154.616 393.697 153.724C391.53 158.87 396.728 158.284 396.098 162.824C396.188 162.895 417.869 164.897 409.587 171.253C412.765 172.257 419.509 188.492 422.748 179.345C420.586 187.488 440.166 196.634 444.696 201.583C442.281 200.861 440.48 199.397 439.291 197.202C439.404 206.18 444.857 206.311 446.793 213.516C447.926 217.737 447.474 226.645 441.317 221.134C441.876 225.923 440.326 226.875 444.687 227.757C445.359 227.888 451.075 240.257 451.469 241.693C450.2 240.6 448.964 239.474 447.752 238.32C451.497 243.803 458.186 246.885 461.147 252.955C464.15 259.09 465.062 264.719 468.672 270.681C471.445 275.268 475.453 283.13 481.197 284.537C483.824 285.179 493.356 282.693 491.984 287.867C492.989 285.24 495.269 284.279 497.722 285.841C494.512 289.753 491.611 300.42 502.454 297.657C501.74 297.84 508.001 310.024 508.603 310.882C521.104 325.04 537.968 349.944 544.595 352.629C585.784 357.221 604.83 359.454 627.24 364.434C630.161 363.736 632.721 361.984 633.656 360.097C638.657 371.635 650.017 377.673 651.926 385.164C653.651 391.932 653.17 396.426 651.393 403.386C645.442 426.692 642.164 468.665 633.539 473.302C574.816 504.878 501.324 515.927 431.537 527.465C422.484 530.664 413.777 534.748 405.515 539.52C393.091 546.695 381.011 568.25 376.98 581.117C375.117 587.063 368.106 593.574 361.549 593.602C354.697 593.63 353.43 582.512 347.846 580.637C341.5 578.506 336.814 581.742 331.343 581.074C322.859 580.037 311.519 581.367 303.893 577.452C294.733 572.748 287.983 574.907 277.836 574.927C268.948 574.945 259.563 580.374 250.715 580.262C239.727 580.123 238.121 571.778 232.403 573.278C224.74 575.289 222.707 585.329 222.28 591.676C221.857 597.939 229.712 601.58 223.061 606.104C221.785 606.972 220.454 615.844 210.892 619C210.831 618.16 211.385 617.933 211.336 617.112Z" fill="#D9B99E" stroke="#E4E7EC" stroke-width="2.5"/>
<path fill-rule="evenodd" clip-rule="evenodd" d="M469.793 256.501C469.587 254.671 466.94 243.428 472.139 248.73C471.844 246.91 470.652 236.802 473.876 245.352C474.134 236.83 477.17 214.338 488.911 226.741C491.854 229.852 497.503 232.034 497.531 236.914C497.531 240.321 495.87 242.48 495.096 245.591C494.42 248.285 496.067 251.785 496.33 254.474C496.588 257.163 499.446 257.215 500.197 259.542C501.436 263.339 500.516 266.783 498.982 270.288C496.326 276.356 497.198 280.786 490.544 282.78C485.016 284.441 480.037 288.838 476.335 280.72C472.956 273.315 471.548 264.404 469.793 256.501Z" fill="#D9B99E" stroke="#E4E7EC" stroke-width="2.5"/>
</svg>
